<?xml version="1.0" encoding="UTF-8" standalone="no"?>
<!-- Generator: Adobe Illustrator 18.0.0, SVG Export Plug-In . SVG Version: 6.00 Build 0)  -->

<svg
   xmlns:dc="http://purl.org/dc/elements/1.1/"
   xmlns:cc="http://creativecommons.org/ns#"
   xmlns:rdf="http://www.w3.org/1999/02/22-rdf-syntax-ns#"
   xmlns:svg="http://www.w3.org/2000/svg"
   xmlns="http://www.w3.org/2000/svg"
   xmlns:sodipodi="http://sodipodi.sourceforge.net/DTD/sodipodi-0.dtd"
   xmlns:inkscape="http://www.inkscape.org/namespaces/inkscape"
   version="1.1"
   id="Capa_1"
   x="0px"
   y="0px"
   viewBox="0 0 482.14 482.14"
   style="enable-background:new 0 0 482.14 482.14;"
   xml:space="preserve"
   inkscape:version="0.91 r13725"
   sodipodi:docname="cryptpad-icon.svg"><metadata
     id="metadata45"><rdf:RDF><cc:Work
         rdf:about=""><dc:format>image/svg+xml</dc:format><dc:type
           rdf:resource="http://purl.org/dc/dcmitype/StillImage" /><dc:title /></cc:Work></rdf:RDF></metadata><defs
     id="defs43" /><sodipodi:namedview
     pagecolor="#ffffff"
     bordercolor="#666666"
     borderopacity="1"
     objecttolerance="10"
     gridtolerance="10"
     guidetolerance="10"
     inkscape:pageopacity="0"
     inkscape:pageshadow="2"
     inkscape:window-width="1871"
     inkscape:window-height="1056"
     id="namedview41"
     showgrid="false"
     inkscape:zoom="0.48948437"
     inkscape:cx="-333.00348"
     inkscape:cy="236.98408"
     inkscape:window-x="1415"
     inkscape:window-y="191"
     inkscape:window-maximized="1"
     inkscape:current-layer="g3" /><g
     id="g3"><path
       d="M377.598,207.169c-7.519,0-13.634,6.115-13.634,13.632v3.704c0,11.939-6.186,22.459-15.508,28.526h29.148v-45.862H377.598z   "
       id="path5"
       style="fill:#4285f4;fill-opacity:1" /><path
       d="m 334.305,450.698 -264.221,0 c -10.953,0 -19.875,-8.905 -19.875,-19.874 l 0,-379.509 c 0,-10.953 10.963966,-30.072831 21.917966,-30.072831 L 249.93103,21.054169 251.974,98.486 c 0.51835,19.64616 15.933,35.604 35.587,35.604 l 65.862,-0.189 0.032,11.916 c 9.874,-4.248 20.724,-6.645 32.143,-6.645 l 0.006,0 0,-17.722 L 263.731,0 70.084,0 C 41.793,0 31.177458,23.026401 31.026797,51.315 l -2.042966,383.59493 c -0.150661,28.2886 16.895101,34.97227 45.186101,34.97227 l 260.135068,0 c 26.375,0 47.928,-7.8522 50.741,-33.5022 l -19.7432,0 c -2.443,8.21 -22.0138,14.318 -30.9978,14.318 z"
       id="path7"
       style="fill:#4285f4;fill-opacity:1"
       inkscape:connector-curvature="0"
       sodipodi:nodetypes="ssssccscccscccsssssccs" /><path
       d="M446.959,269.17h-3.869v-48.369c0-36.114-29.385-65.491-65.492-65.491c-36.108,0-65.492,29.377-65.492,65.491v3.704   c0,9.867,7.998,17.865,17.863,17.865c9.858,0,17.856-7.998,17.856-17.865v-3.704c0-16.412,13.358-29.77,29.772-29.77   c16.413,0,29.771,13.358,29.771,29.77v48.369h-99.133c-13.482,0-24.405,10.931-24.405,24.413v102.246   c0,13.482,10.922,24.413,24.405,24.413h138.723c13.483,0,24.412-10.931,24.412-24.413V293.583   C471.371,280.101,460.442,269.17,446.959,269.17z M390.993,346.688v17.739c0,7.399-5.996,13.395-13.395,13.395   c-7.4,0-13.397-5.995-13.397-13.395v-17.739c-5.838-4.184-9.676-10.992-9.676-18.723c0-12.743,10.33-23.082,23.08-23.082   c12.735,0,23.065,10.339,23.065,23.082C400.67,335.695,396.834,342.504,390.993,346.688z"
       id="path9"
       style="fill:#ffc107;fill-opacity:1" /></g><g
     id="g11" /><g
     id="g13" /><g
     id="g15" /><g
     id="g17" /><g
     id="g19" /><g
     id="g21" /><g
     id="g23" /><g
     id="g25" /><g
     id="g27" /><g
     id="g29" /><g
     id="g31" /><g
     id="g33" /><g
     id="g35" /><g
     id="g37" /><g
     id="g39" /></svg>